<?xml version="1.0" encoding="iso-8859-1"?>
<!-- Generator: Adobe Illustrator 16.0.0, SVG Export Plug-In . SVG Version: 6.00 Build 0)  -->
<!DOCTYPE svg PUBLIC "-//W3C//DTD SVG 1.1//EN" "http://www.w3.org/Graphics/SVG/1.1/DTD/svg11.dtd">
<svg version="1.1" id="Capa_1" xmlns="http://www.w3.org/2000/svg" xmlns:xlink="http://www.w3.org/1999/xlink" x="0px" y="0px"
	 width="221.134px" height="221.134px" viewBox="0 0 221.134 221.134" style="enable-background:new 0 0 221.134 221.134;"
	 xml:space="preserve">
<g>
	<g>
		<path d="M32.379,85.866c7.788,0,14.099-9.03,14.099-16.806c0-7.794-6.312-14.103-14.099-14.103
			c-7.782,0-14.097,6.308-14.097,14.103C18.283,76.836,24.597,85.866,32.379,85.866z"/>
		<path d="M62.557,140.157l-14.565-2.935v-36.435c0.399,0.118,0.761,0.21,1.117,0.322v22.697c0,2.113,1.197,4.05,3.081,4.993
			l8.927,4.463c0.798,0.391,1.66,0.585,2.481,0.585c2.052,0,4.022-1.12,4.996-3.081c1.376-2.752,0.262-6.102-2.5-7.478l-5.824-2.91
			V97.058c0-0.055-0.04-0.1-0.04-0.149c-0.012-0.411-0.143-0.798-0.234-1.197c-0.082-0.307-0.119-0.636-0.237-0.911
			c-0.131-0.332-0.387-0.593-0.582-0.88c-0.21-0.292-0.386-0.618-0.648-0.867c-0.21-0.204-0.496-0.341-0.773-0.524
			c-0.335-0.228-0.649-0.49-1.054-0.648c-0.042-0.012-0.079-0.055-0.125-0.073c-0.512-0.177-11.795-4.235-22.141-4.741l-1.315,2.658
			h-0.04l3.754,29.24l-4.463,7.794l-4.463-7.794l3.766-29.24H31.63l-1.321-2.658C19.973,87.574,8.686,91.627,8.175,91.81
			c-0.046,0.018-0.07,0.061-0.113,0.073c-0.405,0.159-0.737,0.411-1.078,0.655c-0.262,0.177-0.545,0.308-0.761,0.505
			c-0.262,0.262-0.426,0.582-0.648,0.886c-0.189,0.287-0.433,0.536-0.569,0.853c-0.131,0.295-0.155,0.625-0.25,0.932
			c-0.091,0.393-0.222,0.78-0.235,1.184c0,0.049-0.027,0.095-0.027,0.144l-0.042,20.246c0,1.382,0.512,2.716,1.428,3.739
			l0.469,0.512c-0.262-0.031-0.5-0.146-0.773-0.146c-3.081,0-5.575,2.496-5.575,5.577v14.675v4.476v43.994
			c0,3.081,2.487,5.59,5.575,5.59h37.948c3.081,0,5.581-2.503,5.581-5.59v-39.001l5.73,1.163l2.088,38.216
			c0.186,3.556,3.148,6.326,6.671,6.326c0.125,0,0.25-0.006,0.375-0.012c3.687-0.201,6.515-3.355,6.317-7.045l-2.369-43.392
			C67.757,143.305,65.543,140.76,62.557,140.157z M15.643,101.116c0.362-0.112,0.737-0.21,1.124-0.328v15.658l-1.148-1.279
			L15.643,101.116z M16.767,133.131v5.406l-5.605-1.314v-10.261c0-0.042-0.024-0.067-0.024-0.116L16.767,133.131z M37.954,184.522
			H11.162v-35.841l26.798,6.297v29.544H37.954z"/>
		<path d="M188.751,85.866c7.794,0,14.103-9.03,14.103-16.806c0-7.794-6.309-14.103-14.103-14.103
			c-7.781,0-14.103,6.308-14.103,14.103C174.649,76.836,180.97,85.866,188.751,85.866z"/>
		<path d="M215.556,121.378c-0.28,0-0.523,0.128-0.779,0.152l0.463-0.511c0.926-1.029,1.437-2.357,1.431-3.739l-0.03-20.247
			c0-0.055-0.037-0.1-0.037-0.143c-0.012-0.405-0.134-0.792-0.243-1.185c-0.073-0.313-0.098-0.642-0.231-0.932
			c-0.134-0.316-0.377-0.566-0.584-0.853c-0.201-0.304-0.372-0.624-0.634-0.886c-0.219-0.198-0.512-0.329-0.761-0.505
			c-0.354-0.244-0.676-0.5-1.078-0.655c-0.043-0.012-0.067-0.055-0.122-0.073c-0.511-0.176-11.788-4.235-22.128-4.741l-1.327,2.658
			h-0.043l3.757,29.246l-4.469,7.794l-4.445-7.794l3.751-29.246h-0.036l-1.328-2.658c-10.339,0.506-21.629,4.558-22.14,4.741
			c-0.043,0.018-0.079,0.061-0.11,0.073c-0.401,0.149-0.725,0.411-1.071,0.648c-0.256,0.183-0.548,0.32-0.768,0.524
			c-0.268,0.25-0.432,0.576-0.633,0.868c-0.195,0.286-0.45,0.548-0.597,0.88c-0.122,0.28-0.146,0.609-0.226,0.91
			c-0.104,0.399-0.237,0.786-0.249,1.197c0,0.055-0.024,0.101-0.024,0.149v23.321l-5.834,2.911c-2.765,1.382-3.872,4.726-2.49,7.478
			c0.975,1.955,2.941,3.087,4.98,3.087c0.847,0,1.688-0.194,2.497-0.597l8.914-4.457c1.895-0.938,3.081-2.881,3.081-4.993v-22.697
			c0.359-0.113,0.725-0.204,1.127-0.323v36.441l-14.571,2.929c-2.99,0.603-5.194,3.147-5.364,6.192l-2.363,43.392
			c-0.207,3.689,2.631,6.844,6.327,7.045c0.128,0.006,0.237,0.013,0.359,0.013c3.537,0,6.484-2.759,6.686-6.327l2.089-38.216
			l5.718-1.163v39.001c0,3.082,2.496,5.59,5.577,5.59h37.96c3.069,0,5.578-2.502,5.578-5.59v-43.994v-4.475v-14.676
			C221.127,123.887,218.625,121.378,215.556,121.378z M204.365,100.794c0.39,0.119,0.767,0.216,1.12,0.329l0.024,14.051
			l-1.145,1.272V100.794z M209.978,184.522h-26.811v-29.544l26.811-6.297V184.522z M209.978,126.962v10.261l-5.613,1.314v-5.406
			l5.638-6.285C210.002,126.895,209.978,126.92,209.978,126.962z"/>
		<path d="M135.1,119.527H86.034c-3.69,0-6.683,2.989-6.683,6.686c0,3.69,2.993,6.686,6.683,6.686h1.248v57.195
			c0,3.082,2.488,5.584,5.581,5.584h35.424c3.093,0,5.59-2.496,5.59-5.584v-57.195h1.224c3.696,0,6.692-2.995,6.692-6.686
			C141.792,122.523,138.791,119.527,135.1,119.527z"/>
		<path d="M153.483,67.353V47.246c0-2.677-2.198-4.865-4.858-4.865h-22.384V30.695c0-3.504-2.874-6.378-6.388-6.378H74.038
			c-3.504,0-6.378,2.874-6.378,6.378V57.07c0,3.511,2.874,6.373,6.378,6.373h3.13l-8.893,13.469l25.297-13.469h15.253v3.903
			c0,2.682,2.191,4.865,4.871,4.865h20.033l19.278,10.263l-6.777-10.263h2.394C151.285,72.224,153.483,70.034,153.483,67.353z
			 M93.636,58.587c-2.862,0-5.182-2.32-5.182-5.182c0-2.868,2.32-5.188,5.182-5.188c2.855,0,5.188,2.32,5.188,5.188
			C98.824,56.267,96.492,58.587,93.636,58.587z M110.57,58.587c-2.861,0-5.182-2.32-5.182-5.182c0-2.868,2.32-5.188,5.182-5.188
			c2.859,0,5.186,2.32,5.186,5.188C115.755,56.267,113.429,58.587,110.57,58.587z M127.507,58.587c-2.862,0-5.188-2.32-5.188-5.182
			c0-2.868,2.326-5.188,5.188-5.188c2.861,0,5.188,2.32,5.188,5.188C132.695,56.267,130.369,58.587,127.507,58.587z"/>
	</g>
</g>
<g>
</g>
<g>
</g>
<g>
</g>
<g>
</g>
<g>
</g>
<g>
</g>
<g>
</g>
<g>
</g>
<g>
</g>
<g>
</g>
<g>
</g>
<g>
</g>
<g>
</g>
<g>
</g>
<g>
</g>
</svg>
